PathFileType	4	(X/Y/Z)	5_coords_data.trc
DataRate	CameraRate	NumFrames	NumMarkers	Units	OrigDataRate	OrigDataStartFrame	OrigNumFrames
30.0	30.0	6	21	m	30.0	32	63
Frame#	Time	THUMB_TIP	THUMB_IP	THUMB_MCP	THUMB_CMC	INDEX_TIP	INDEX_DIP	INDEX_PIP	INDEX_MCP	MIDDLE_TIP	MIDDLE_DIP	MIDDLE_PIP	MIDDLE_MCP	RING_TIP	RING_DIP	RING_PIP	RING_MCP	PINKY_TIP	PINKY_DIP	PINKY_PIP	PINKY_MCP	WRIST
X1	Y1	Z1	X2	Y2	Z2	X3	Y3	Z3	X4	Y4	Z4	X5	Y5	Z5	X6	Y6	Z6	X7	Y7	Z7	X8	Y8	Z8	X9	Y9	Z9	X10	Y10	Z10	X11	Y11	Z11	X12	Y12	Z12	X13	Y13	Z13	X14	Y14	Z14	X15	Y15	Z15	X16	Y16	Z16	X17	Y17	Z17	X18	Y18	Z18	X19	Y19	Z19	X20	Y20	Z20	X21	Y21	Z21
31	1.0333333333333334	-0.0354813003540039	-0.1768249969482422	1.0064400024414062	-0.028787200927734374	-0.15098699951171876	1.0090700073242187	-0.030963800430297853	-0.12688800048828125	1.0268599853515625	-0.027874300003051758	-0.0926854019165039	1.035030029296875	-0.022189300537109376	-0.10170800018310547	1.016469970703125	-0.009787199974060058	-0.10406600189208984	1.0028499755859375	-0.009356459617614747	-0.11053500366210937	0.98014501953125	-0.04972959899902344	-0.10991100311279296	0.983469970703125	-0.01954290008544922	-0.08818060302734375	1.016010009765625	-0.008163129806518555	-0.08792440032958984	1.0021099853515625	-0.008326239585876465	-0.0919354019165039	0.9744669799804687	-0.05088339996337891	-0.0904260025024414	0.9780679931640625	-0.021640100479125977	-0.0719114990234375	1.0154000244140624	-0.008617959976196288	-0.07192060089111328	1.0010999755859376	-0.007147830009460449	-0.07277590179443359	0.975072021484375	-0.04736679840087891	-0.07149800109863282	0.9781740112304688	-0.022717100143432617	-0.05758679962158203	1.0111500244140625	-0.009277759552001953	-0.0577505989074707	1.0006400146484375	-0.00902731990814209	-0.05723649978637695	0.9830980224609375	-0.03847629928588867	-0.05373329925537109	0.9811849975585938	-0.03917229843139648	-0.061758499145507816	1.0478199462890625
32	1.0666666666666667	-0.03551380157470703	-0.1766929931640625	1.0059099731445313	-0.02894129943847656	-0.15099800109863282	1.0086500244140626	-0.031166799545288087	-0.12696700286865234	1.026510009765625	-0.028169599533081055	-0.09281710052490234	1.0346700439453125	-0.021722999572753907	-0.10141000366210938	1.0190599975585937	-0.009981149673461915	-0.10410700225830079	1.0025700073242187	-0.009615480422973633	-0.11064099884033203	0.9798300170898437	-0.05000790023803711	-0.1099280014038086	0.9832260131835937	-0.01976219940185547	-0.08822219848632812	1.01572998046875	-0.008443570137023926	-0.08805989837646484	1.0017100219726562	-0.008553119659423828	-0.09198789978027344	0.97406201171875	-0.05113000106811524	-0.09045490264892578	0.9778800048828125	-0.021826400756835937	-0.07199759674072266	1.0150800170898437	-0.00879148006439209	-0.07201300048828126	1.0006699829101562	-0.007419219970703125	-0.07284629821777344	0.9746329956054688	-0.047557201385498044	-0.0715365982055664	0.9778469848632813	-0.02297559928894043	-0.057608898162841794	1.01077001953125	-0.009491629600524902	-0.057847198486328126	1.0003900146484375	-0.009152330398559571	-0.05733489990234375	0.982864013671875	-0.03847990036010742	-0.053819900512695314	0.9807360229492188	-0.039495601654052734	-0.06176570129394531	1.047489990234375
33	1.1	-0.03531819915771484	-0.17655099487304687	1.00497998046875	-0.02893199920654297	-0.15084100341796874	1.007989990234375	-0.03143350028991699	-0.12698799896240234	1.026030029296875	-0.02861490058898926	-0.092806396484375	1.0343900146484375	-0.022655399322509765	-0.10183599853515625	1.015780029296875	-0.010053999900817871	-0.10429399871826171	1.0020800170898438	-0.009912690162658692	-0.11083300018310546	0.9792169799804687	-0.05011009979248047	-0.1100530014038086	0.9828629760742188	-0.019904399871826173	-0.08834999847412109	1.0152999877929687	-0.008570549964904785	-0.08818679809570312	1.0011900024414062	-0.008909799575805665	-0.09203939819335938	0.9736129760742187	-0.05143220138549805	-0.09053900146484375	0.9774829711914063	-0.022062999725341797	-0.07209349822998047	1.0146500244140626	-0.009021849632263183	-0.0721427993774414	1.0001900024414063	-0.007726779937744141	-0.07287969970703125	0.9744229736328125	-0.04789699935913086	-0.07163600158691406	0.9775269775390625	-0.023225900650024413	-0.05775529861450195	1.0104099731445313	-0.00969674015045166	-0.057958900451660154	0.99989501953125	-0.009466349601745605	-0.0574473991394043	0.9823809814453125	-0.03881399917602539	-0.05389939880371094	0.9804190063476562	-0.03964419937133789	-0.06195759963989258	1.0471199951171875
34	1.1333333333333333	-0.035308998107910154	-0.17613400268554688	1.0034500122070313	-0.029145700454711914	-0.15039900207519533	1.007030029296875	-0.03196100044250488	-0.12694400024414063	1.0255899658203125	-0.029077499389648438	-0.09292749786376953	1.0339599609375	-0.021480199813842773	-0.101875	1.0158800048828125	-0.010077500343322754	-0.10473300170898438	1.0013200073242188	-0.010348199844360351	-0.11143399810791016	0.978666015625	-0.05051029968261719	-0.11024700164794922	0.9826019897460937	-0.020068899154663086	-0.08855870056152344	1.0150999755859376	-0.008681389808654785	-0.0884896011352539	1.00072998046875	-0.00926669979095459	-0.09246089935302734	0.9730659790039062	-0.051833301544189456	-0.09074549865722656	0.97710498046875	-0.022241600036621095	-0.07245549774169922	1.0140700073242188	-0.009128310203552247	-0.07252020263671875	0.9995969848632813	-0.008221349716186523	-0.07330609893798828	0.9737849731445313	-0.048314300537109375	-0.07187359619140625	0.9770910034179687	-0.02340800094604492	-0.05808509826660156	1.0098300170898438	-0.009833930015563964	-0.05831639862060547	0.99914599609375	-0.009764479637145997	-0.057828201293945315	0.9816530151367188	-0.03912889862060547	-0.054145198822021484	0.9799349975585937	-0.04022719955444336	-0.06197930145263672	1.0468199462890626
35	1.1666666666666667	-0.034887901306152345	-0.1751790008544922	1.0011199951171874	-0.029072200775146485	-0.14960400390625	1.005719970703125	-0.032381698608398436	-0.12698899841308595	1.0251600341796876	-0.02947369956970215	-0.09311799621582031	1.0337900390625	-0.01910810089111328	-0.10162200164794923	1.0176799926757814	-0.009100170135498046	-0.10533100128173828	1.0006500244140626	-0.010324999809265137	-0.11228500366210938	0.9779669799804688	-0.05055270004272461	-0.11060099792480468	0.9823350219726562	-0.019775299072265624	-0.08891539764404296	1.0148900146484374	-0.00813558006286621	-0.0891977996826172	0.999864990234375	-0.009411000251770019	-0.09335140228271484	0.9724210205078125	-0.05195259857177734	-0.09110410308837891	0.9767360229492188	-0.02182069969177246	-0.0728947982788086	1.0138499755859376	-0.008758649826049805	-0.07319680023193359	0.9988729858398437	-0.008443909645080567	-0.07412840270996093	0.972844970703125	-0.04857849884033203	-0.07229090118408203	0.9767039794921875	-0.022889299392700194	-0.05872790145874023	1.009469970703125	-0.009378230094909668	-0.05898260116577148	0.9982479858398438	-0.009932589530944825	-0.058561901092529296	0.9807260131835938	-0.039332298278808596	-0.05463460159301758	0.9793729858398438	-0.04069969940185547	-0.062054698944091796	1.0465899658203126
36	1.2	-0.0338583984375	-0.17425799560546876	0.998905029296875	-0.028500200271606446	-0.14878500366210937	1.0044299926757811	-0.03240859985351562	-0.12705899810791016	1.024739990234375	-0.02963640022277832	-0.09331020355224609	1.033469970703125	-0.013963500022888183	-0.10166799926757812	1.0162899780273438	-0.00684922981262207	-0.10603500366210937	0.99835302734375	-0.010517499923706054	-0.113197998046875	0.975531005859375	-0.050678298950195315	-0.11083200073242187	0.98206201171875	-0.017109600067138672	-0.08912940216064454	1.014510009765625	-0.005857540130615234	-0.08956819915771484	0.9980430297851562	-0.009784040451049804	-0.09399700164794922	0.9703980102539063	-0.05222330093383789	-0.09136070251464844	0.9764829711914063	-0.020326499938964845	-0.0735155029296875	1.013469970703125	-0.007296000003814697	-0.07363960266113281	0.9974030151367187	-0.00892158031463623	-0.07443470001220703	0.971218017578125	-0.04908470153808594	-0.07251239776611328	0.9764039916992188	-0.021501100540161133	-0.05956869888305664	1.0091900024414062	-0.008237250328063965	-0.05967290115356445	0.996906005859375	-0.010446599960327149	-0.0589275016784668	0.9792239990234375	-0.04002180099487305	-0.05480619812011719	0.97897802734375	-0.04123059844970703	-0.06221960067749024	1.04622998046875
